<mxfile host="app.diagrams.net" modified="2022-09-20T11:29:53.264Z" agent="5.0 (Windows NT 10.0; Win64; x64) AppleWebKit/537.36 (KHTML, like Gecko) Chrome/105.0.0.0 Safari/537.36" etag="geBM3K4gBncqQP0Hh94a" version="20.3.2" type="github">
  <diagram name="Page-1" id="e7e014a7-5840-1c2e-5031-d8a46d1fe8dd">
    <mxGraphModel dx="2307" dy="1198" grid="1" gridSize="10" guides="1" tooltips="1" connect="1" arrows="1" fold="1" page="1" pageScale="1" pageWidth="8000000" pageHeight="80000000" background="none" math="0" shadow="0">
      <root>
        <mxCell id="0" />
        <mxCell id="1" parent="0" />
        <mxCell id="2" value="Pengguna" style="swimlane;whiteSpace=wrap" parent="1" vertex="1">
          <mxGeometry x="164.5" y="128" width="280" height="472" as="geometry" />
        </mxCell>
        <mxCell id="5" value="" style="ellipse;shape=startState;fillColor=#000000;strokeColor=#ff0000;" parent="2" vertex="1">
          <mxGeometry x="100" y="40" width="30" height="30" as="geometry" />
        </mxCell>
        <mxCell id="6" value="" style="edgeStyle=elbowEdgeStyle;elbow=horizontal;verticalAlign=bottom;endArrow=open;endSize=8;strokeColor=#FF0000;endFill=1;rounded=0" parent="2" source="5" target="7" edge="1">
          <mxGeometry x="100" y="40" as="geometry">
            <mxPoint x="115" y="110" as="targetPoint" />
          </mxGeometry>
        </mxCell>
        <mxCell id="7" value="Email, Password" style="" parent="2" vertex="1">
          <mxGeometry x="60" y="110" width="110" height="50" as="geometry" />
        </mxCell>
        <mxCell id="10" value="Menu Utama" style="" parent="2" vertex="1">
          <mxGeometry x="60" y="312" width="110" height="50" as="geometry" />
        </mxCell>
        <mxCell id="TTVFHWz1o9dqO3t8jT5p-57" value="" style="endArrow=classic;html=1;rounded=0;exitX=-0.024;exitY=0.51;exitDx=0;exitDy=0;exitPerimeter=0;" edge="1" parent="2" source="21">
          <mxGeometry width="50" height="50" relative="1" as="geometry">
            <mxPoint x="655.5" y="252" as="sourcePoint" />
            <mxPoint x="115.5" y="172" as="targetPoint" />
            <Array as="points">
              <mxPoint x="115.5" y="252" />
            </Array>
          </mxGeometry>
        </mxCell>
        <mxCell id="TTVFHWz1o9dqO3t8jT5p-61" value="" style="ellipse;shape=startState;fillColor=#000000;strokeColor=#ff0000;direction=south;" vertex="1" parent="2">
          <mxGeometry x="100" y="422" width="30" height="30" as="geometry" />
        </mxCell>
        <mxCell id="TTVFHWz1o9dqO3t8jT5p-62" value="" style="endArrow=classic;html=1;rounded=0;exitX=0.489;exitY=1.04;exitDx=0;exitDy=0;exitPerimeter=0;entryX=0;entryY=0.5;entryDx=0;entryDy=0;" edge="1" parent="2" source="10" target="TTVFHWz1o9dqO3t8jT5p-61">
          <mxGeometry width="50" height="50" relative="1" as="geometry">
            <mxPoint x="275.5" y="322" as="sourcePoint" />
            <mxPoint x="325.5" y="272" as="targetPoint" />
          </mxGeometry>
        </mxCell>
        <mxCell id="3" value="Sistem" style="swimlane;whiteSpace=wrap" parent="1" vertex="1">
          <mxGeometry x="444.5" y="128" width="275.5" height="472" as="geometry" />
        </mxCell>
        <mxCell id="13" value="" style="ellipse;shape=startState;fillColor=#000000;strokeColor=#ff0000;" parent="3" vertex="1">
          <mxGeometry x="120" y="40" width="30" height="30" as="geometry" />
        </mxCell>
        <mxCell id="14" value="" style="edgeStyle=elbowEdgeStyle;elbow=horizontal;verticalAlign=bottom;endArrow=open;endSize=8;strokeColor=#FF0000;endFill=1;rounded=0" parent="3" source="13" edge="1">
          <mxGeometry x="100" y="20" as="geometry">
            <mxPoint x="135.108695652174" y="110" as="targetPoint" />
          </mxGeometry>
        </mxCell>
        <mxCell id="15" value="Request" style="" parent="3" vertex="1">
          <mxGeometry x="80" y="110" width="110" height="50" as="geometry" />
        </mxCell>
        <mxCell id="16" value="Login Valid" style="" parent="3" vertex="1">
          <mxGeometry x="85" y="312" width="110" height="50" as="geometry" />
        </mxCell>
        <mxCell id="TTVFHWz1o9dqO3t8jT5p-65" value="Email, Password Salah" style="text;html=1;strokeColor=none;fillColor=none;align=center;verticalAlign=middle;whiteSpace=wrap;rounded=0;" vertex="1" parent="3">
          <mxGeometry x="66.5" y="227" width="154.5" height="30" as="geometry" />
        </mxCell>
        <mxCell id="4" value="Database" style="swimlane;whiteSpace=wrap" parent="1" vertex="1">
          <mxGeometry x="720.5" y="128" width="280" height="472" as="geometry">
            <mxRectangle x="724.5" y="128" width="90" height="30" as="alternateBounds" />
          </mxGeometry>
        </mxCell>
        <mxCell id="21" value="" style="rhombus;fillColor=#ffffc0;strokeColor=#ff0000;" parent="4" vertex="1">
          <mxGeometry x="105" y="232" width="80" height="40" as="geometry" />
        </mxCell>
        <mxCell id="TTVFHWz1o9dqO3t8jT5p-47" value="Validasi" style="" vertex="1" parent="4">
          <mxGeometry x="90" y="112" width="110" height="50" as="geometry" />
        </mxCell>
        <mxCell id="TTVFHWz1o9dqO3t8jT5p-48" value="" style="endArrow=classic;html=1;rounded=0;exitX=1.027;exitY=0.481;exitDx=0;exitDy=0;exitPerimeter=0;" edge="1" parent="4" source="15">
          <mxGeometry width="50" height="50" relative="1" as="geometry">
            <mxPoint x="-94.5" y="134" as="sourcePoint" />
            <mxPoint x="85.5" y="134" as="targetPoint" />
          </mxGeometry>
        </mxCell>
        <mxCell id="TTVFHWz1o9dqO3t8jT5p-55" value="" style="ellipse;shape=startState;fillColor=#000000;strokeColor=#ff0000;" vertex="1" parent="4">
          <mxGeometry x="125" y="42" width="30" height="30" as="geometry" />
        </mxCell>
        <mxCell id="TTVFHWz1o9dqO3t8jT5p-56" value="" style="edgeStyle=elbowEdgeStyle;elbow=horizontal;verticalAlign=bottom;endArrow=open;endSize=8;strokeColor=#FF0000;endFill=1;rounded=0" edge="1" parent="4">
          <mxGeometry x="-339.71000000000004" y="-106" as="geometry">
            <mxPoint x="139.89869565217396" y="112" as="targetPoint" />
            <mxPoint x="139.78999999999996" y="72" as="sourcePoint" />
          </mxGeometry>
        </mxCell>
        <mxCell id="TTVFHWz1o9dqO3t8jT5p-64" value="Ya" style="text;html=1;strokeColor=none;fillColor=none;align=center;verticalAlign=middle;whiteSpace=wrap;rounded=0;" vertex="1" parent="4">
          <mxGeometry x="125" y="302" width="60" height="30" as="geometry" />
        </mxCell>
        <mxCell id="TTVFHWz1o9dqO3t8jT5p-41" value="" style="endArrow=classic;html=1;rounded=0;" edge="1" parent="1">
          <mxGeometry width="50" height="50" relative="1" as="geometry">
            <mxPoint x="340" y="260" as="sourcePoint" />
            <mxPoint x="520" y="260" as="targetPoint" />
          </mxGeometry>
        </mxCell>
        <mxCell id="TTVFHWz1o9dqO3t8jT5p-58" value="" style="endArrow=classic;html=1;rounded=0;exitX=0.491;exitY=1.073;exitDx=0;exitDy=0;exitPerimeter=0;" edge="1" parent="1" source="TTVFHWz1o9dqO3t8jT5p-47">
          <mxGeometry width="50" height="50" relative="1" as="geometry">
            <mxPoint x="600" y="350" as="sourcePoint" />
            <mxPoint x="869" y="350" as="targetPoint" />
          </mxGeometry>
        </mxCell>
        <mxCell id="TTVFHWz1o9dqO3t8jT5p-59" value="" style="endArrow=classic;html=1;rounded=0;exitX=0.5;exitY=1;exitDx=0;exitDy=0;" edge="1" parent="1" source="21">
          <mxGeometry width="50" height="50" relative="1" as="geometry">
            <mxPoint x="630" y="510" as="sourcePoint" />
            <mxPoint x="640" y="470" as="targetPoint" />
            <Array as="points">
              <mxPoint x="870" y="470" />
            </Array>
          </mxGeometry>
        </mxCell>
        <mxCell id="TTVFHWz1o9dqO3t8jT5p-60" value="" style="endArrow=classic;html=1;rounded=0;exitX=0.005;exitY=0.6;exitDx=0;exitDy=0;exitPerimeter=0;" edge="1" parent="1" source="16">
          <mxGeometry width="50" height="50" relative="1" as="geometry">
            <mxPoint x="470" y="510" as="sourcePoint" />
            <mxPoint x="340" y="470" as="targetPoint" />
          </mxGeometry>
        </mxCell>
        <mxCell id="TTVFHWz1o9dqO3t8jT5p-66" value="Pengguna" style="swimlane;whiteSpace=wrap" vertex="1" parent="1">
          <mxGeometry x="1140" y="138" width="280" height="602" as="geometry" />
        </mxCell>
        <mxCell id="TTVFHWz1o9dqO3t8jT5p-67" value="" style="ellipse;shape=startState;fillColor=#000000;strokeColor=#ff0000;" vertex="1" parent="TTVFHWz1o9dqO3t8jT5p-66">
          <mxGeometry x="100" y="40" width="30" height="30" as="geometry" />
        </mxCell>
        <mxCell id="TTVFHWz1o9dqO3t8jT5p-68" value="" style="edgeStyle=elbowEdgeStyle;elbow=horizontal;verticalAlign=bottom;endArrow=open;endSize=8;strokeColor=#FF0000;endFill=1;rounded=0" edge="1" parent="TTVFHWz1o9dqO3t8jT5p-66" source="TTVFHWz1o9dqO3t8jT5p-67" target="TTVFHWz1o9dqO3t8jT5p-69">
          <mxGeometry x="100" y="40" as="geometry">
            <mxPoint x="115" y="110" as="targetPoint" />
          </mxGeometry>
        </mxCell>
        <mxCell id="TTVFHWz1o9dqO3t8jT5p-69" value="Pilih Produk" style="" vertex="1" parent="TTVFHWz1o9dqO3t8jT5p-66">
          <mxGeometry x="60" y="110" width="110" height="50" as="geometry" />
        </mxCell>
        <mxCell id="TTVFHWz1o9dqO3t8jT5p-70" value="Menu Utama" style="" vertex="1" parent="TTVFHWz1o9dqO3t8jT5p-66">
          <mxGeometry x="60" y="442" width="110" height="50" as="geometry" />
        </mxCell>
        <mxCell id="TTVFHWz1o9dqO3t8jT5p-93" value="Isi Form Order" style="" vertex="1" parent="TTVFHWz1o9dqO3t8jT5p-66">
          <mxGeometry x="60" y="212" width="110" height="50" as="geometry" />
        </mxCell>
        <mxCell id="TTVFHWz1o9dqO3t8jT5p-74" value="Sistem" style="swimlane;whiteSpace=wrap" vertex="1" parent="1">
          <mxGeometry x="1420" y="138" width="280" height="602" as="geometry" />
        </mxCell>
        <mxCell id="TTVFHWz1o9dqO3t8jT5p-75" value="" style="ellipse;shape=startState;fillColor=#000000;strokeColor=#ff0000;" vertex="1" parent="TTVFHWz1o9dqO3t8jT5p-74">
          <mxGeometry x="120" y="40" width="30" height="30" as="geometry" />
        </mxCell>
        <mxCell id="TTVFHWz1o9dqO3t8jT5p-76" value="" style="edgeStyle=elbowEdgeStyle;elbow=horizontal;verticalAlign=bottom;endArrow=open;endSize=8;strokeColor=#FF0000;endFill=1;rounded=0" edge="1" parent="TTVFHWz1o9dqO3t8jT5p-74" source="TTVFHWz1o9dqO3t8jT5p-75">
          <mxGeometry x="100" y="20" as="geometry">
            <mxPoint x="135.108695652174" y="110" as="targetPoint" />
          </mxGeometry>
        </mxCell>
        <mxCell id="TTVFHWz1o9dqO3t8jT5p-77" value="Request" style="" vertex="1" parent="TTVFHWz1o9dqO3t8jT5p-74">
          <mxGeometry x="80" y="110" width="110" height="50" as="geometry" />
        </mxCell>
        <mxCell id="TTVFHWz1o9dqO3t8jT5p-91" value="Produk Tampil" style="" vertex="1" parent="TTVFHWz1o9dqO3t8jT5p-74">
          <mxGeometry x="80" y="212" width="110" height="50" as="geometry" />
        </mxCell>
        <mxCell id="TTVFHWz1o9dqO3t8jT5p-95" value="Simpan Data" style="rounded=1;whiteSpace=wrap;html=1;" vertex="1" parent="TTVFHWz1o9dqO3t8jT5p-74">
          <mxGeometry x="75" y="312" width="120" height="60" as="geometry" />
        </mxCell>
        <mxCell id="TTVFHWz1o9dqO3t8jT5p-98" value="" style="rhombus;fillColor=#ffffc0;strokeColor=#ff0000;" vertex="1" parent="TTVFHWz1o9dqO3t8jT5p-74">
          <mxGeometry x="95" y="452" width="80" height="40" as="geometry" />
        </mxCell>
        <mxCell id="TTVFHWz1o9dqO3t8jT5p-108" value="Tidak" style="text;html=1;strokeColor=none;fillColor=none;align=center;verticalAlign=middle;whiteSpace=wrap;rounded=0;" vertex="1" parent="TTVFHWz1o9dqO3t8jT5p-74">
          <mxGeometry x="15" y="472" width="60" height="30" as="geometry" />
        </mxCell>
        <mxCell id="TTVFHWz1o9dqO3t8jT5p-107" value="Ya" style="text;html=1;strokeColor=none;fillColor=none;align=center;verticalAlign=middle;whiteSpace=wrap;rounded=0;" vertex="1" parent="TTVFHWz1o9dqO3t8jT5p-74">
          <mxGeometry x="210" y="472" width="60" height="30" as="geometry" />
        </mxCell>
        <mxCell id="TTVFHWz1o9dqO3t8jT5p-80" value="Database" style="swimlane;whiteSpace=wrap" vertex="1" parent="1">
          <mxGeometry x="1700" y="138" width="280" height="602" as="geometry">
            <mxRectangle x="724.5" y="128" width="90" height="30" as="alternateBounds" />
          </mxGeometry>
        </mxCell>
        <mxCell id="TTVFHWz1o9dqO3t8jT5p-82" value="Eksekusi" style="" vertex="1" parent="TTVFHWz1o9dqO3t8jT5p-80">
          <mxGeometry x="90" y="112" width="110" height="50" as="geometry" />
        </mxCell>
        <mxCell id="TTVFHWz1o9dqO3t8jT5p-83" value="" style="endArrow=classic;html=1;rounded=0;exitX=1.027;exitY=0.481;exitDx=0;exitDy=0;exitPerimeter=0;" edge="1" parent="TTVFHWz1o9dqO3t8jT5p-80" source="TTVFHWz1o9dqO3t8jT5p-77">
          <mxGeometry width="50" height="50" relative="1" as="geometry">
            <mxPoint x="-94.5" y="134" as="sourcePoint" />
            <mxPoint x="85.5" y="134" as="targetPoint" />
          </mxGeometry>
        </mxCell>
        <mxCell id="TTVFHWz1o9dqO3t8jT5p-84" value="" style="ellipse;shape=startState;fillColor=#000000;strokeColor=#ff0000;" vertex="1" parent="TTVFHWz1o9dqO3t8jT5p-80">
          <mxGeometry x="125" y="42" width="30" height="30" as="geometry" />
        </mxCell>
        <mxCell id="TTVFHWz1o9dqO3t8jT5p-85" value="" style="edgeStyle=elbowEdgeStyle;elbow=horizontal;verticalAlign=bottom;endArrow=open;endSize=8;strokeColor=#FF0000;endFill=1;rounded=0" edge="1" parent="TTVFHWz1o9dqO3t8jT5p-80">
          <mxGeometry x="-339.71000000000004" y="-106" as="geometry">
            <mxPoint x="139.89869565217396" y="112" as="targetPoint" />
            <mxPoint x="139.78999999999996" y="72" as="sourcePoint" />
          </mxGeometry>
        </mxCell>
        <mxCell id="TTVFHWz1o9dqO3t8jT5p-96" value="Data Disimpan" style="rounded=1;whiteSpace=wrap;html=1;" vertex="1" parent="TTVFHWz1o9dqO3t8jT5p-80">
          <mxGeometry x="85" y="442" width="120" height="60" as="geometry" />
        </mxCell>
        <mxCell id="TTVFHWz1o9dqO3t8jT5p-106" value="" style="ellipse;shape=startState;fillColor=#000000;strokeColor=#ff0000;direction=south;" vertex="1" parent="TTVFHWz1o9dqO3t8jT5p-80">
          <mxGeometry x="130" y="552" width="30" height="30" as="geometry" />
        </mxCell>
        <mxCell id="TTVFHWz1o9dqO3t8jT5p-109" value="" style="endArrow=classic;html=1;rounded=0;exitX=0.501;exitY=1.024;exitDx=0;exitDy=0;exitPerimeter=0;" edge="1" parent="TTVFHWz1o9dqO3t8jT5p-80" source="TTVFHWz1o9dqO3t8jT5p-96" target="TTVFHWz1o9dqO3t8jT5p-106">
          <mxGeometry width="50" height="50" relative="1" as="geometry">
            <mxPoint y="512" as="sourcePoint" />
            <mxPoint x="150" y="542" as="targetPoint" />
          </mxGeometry>
        </mxCell>
        <mxCell id="TTVFHWz1o9dqO3t8jT5p-87" value="" style="endArrow=classic;html=1;rounded=0;" edge="1" parent="1">
          <mxGeometry width="50" height="50" relative="1" as="geometry">
            <mxPoint x="1315.5" y="270" as="sourcePoint" />
            <mxPoint x="1495.5" y="270" as="targetPoint" />
          </mxGeometry>
        </mxCell>
        <mxCell id="TTVFHWz1o9dqO3t8jT5p-88" value="" style="endArrow=classic;html=1;rounded=0;exitX=0.491;exitY=1.073;exitDx=0;exitDy=0;exitPerimeter=0;entryX=1.023;entryY=0.504;entryDx=0;entryDy=0;entryPerimeter=0;" edge="1" source="TTVFHWz1o9dqO3t8jT5p-82" parent="1" target="TTVFHWz1o9dqO3t8jT5p-91">
          <mxGeometry width="50" height="50" relative="1" as="geometry">
            <mxPoint x="1575.5" y="360" as="sourcePoint" />
            <mxPoint x="1844.5" y="360" as="targetPoint" />
            <Array as="points">
              <mxPoint x="1844" y="375" />
            </Array>
          </mxGeometry>
        </mxCell>
        <mxCell id="TTVFHWz1o9dqO3t8jT5p-90" value="" style="endArrow=classic;html=1;rounded=0;exitX=0.473;exitY=1.025;exitDx=0;exitDy=0;exitPerimeter=0;entryX=-0.002;entryY=0.613;entryDx=0;entryDy=0;entryPerimeter=0;" edge="1" source="TTVFHWz1o9dqO3t8jT5p-93" parent="1" target="TTVFHWz1o9dqO3t8jT5p-95">
          <mxGeometry width="50" height="50" relative="1" as="geometry">
            <mxPoint x="1505.5500000000002" y="479.9999999999999" as="sourcePoint" />
            <mxPoint x="1315.5" y="480" as="targetPoint" />
            <Array as="points">
              <mxPoint x="1252" y="487" />
            </Array>
          </mxGeometry>
        </mxCell>
        <mxCell id="TTVFHWz1o9dqO3t8jT5p-94" value="" style="endArrow=classic;html=1;rounded=0;entryX=1.024;entryY=0.539;entryDx=0;entryDy=0;entryPerimeter=0;exitX=0;exitY=0.539;exitDx=0;exitDy=0;exitPerimeter=0;" edge="1" parent="1" source="TTVFHWz1o9dqO3t8jT5p-91" target="TTVFHWz1o9dqO3t8jT5p-93">
          <mxGeometry width="50" height="50" relative="1" as="geometry">
            <mxPoint x="1480" y="430" as="sourcePoint" />
            <mxPoint x="1530" y="380" as="targetPoint" />
          </mxGeometry>
        </mxCell>
        <mxCell id="TTVFHWz1o9dqO3t8jT5p-101" value="" style="endArrow=classic;html=1;rounded=0;exitX=0.473;exitY=1.046;exitDx=0;exitDy=0;exitPerimeter=0;" edge="1" parent="1" source="TTVFHWz1o9dqO3t8jT5p-95">
          <mxGeometry width="50" height="50" relative="1" as="geometry">
            <mxPoint x="1610" y="600" as="sourcePoint" />
            <mxPoint x="1552" y="580" as="targetPoint" />
          </mxGeometry>
        </mxCell>
        <mxCell id="TTVFHWz1o9dqO3t8jT5p-102" value="" style="endArrow=classic;html=1;rounded=0;" edge="1" parent="1">
          <mxGeometry width="50" height="50" relative="1" as="geometry">
            <mxPoint x="1600" y="610" as="sourcePoint" />
            <mxPoint x="1780" y="610" as="targetPoint" />
          </mxGeometry>
        </mxCell>
        <mxCell id="TTVFHWz1o9dqO3t8jT5p-103" value="" style="endArrow=classic;html=1;rounded=0;exitX=0;exitY=0.5;exitDx=0;exitDy=0;" edge="1" parent="1" source="TTVFHWz1o9dqO3t8jT5p-98">
          <mxGeometry width="50" height="50" relative="1" as="geometry">
            <mxPoint x="1670" y="540" as="sourcePoint" />
            <mxPoint x="1320" y="610" as="targetPoint" />
          </mxGeometry>
        </mxCell>
        <mxCell id="TTVFHWz1o9dqO3t8jT5p-173" value="Pengguna" style="swimlane;whiteSpace=wrap" vertex="1" parent="1">
          <mxGeometry x="130" y="940" width="280" height="472" as="geometry" />
        </mxCell>
        <mxCell id="TTVFHWz1o9dqO3t8jT5p-174" value="" style="ellipse;shape=startState;fillColor=#000000;strokeColor=#ff0000;" vertex="1" parent="TTVFHWz1o9dqO3t8jT5p-173">
          <mxGeometry x="100" y="40" width="30" height="30" as="geometry" />
        </mxCell>
        <mxCell id="TTVFHWz1o9dqO3t8jT5p-175" value="" style="edgeStyle=elbowEdgeStyle;elbow=horizontal;verticalAlign=bottom;endArrow=open;endSize=8;strokeColor=#FF0000;endFill=1;rounded=0" edge="1" parent="TTVFHWz1o9dqO3t8jT5p-173" source="TTVFHWz1o9dqO3t8jT5p-174" target="TTVFHWz1o9dqO3t8jT5p-176">
          <mxGeometry x="100" y="40" as="geometry">
            <mxPoint x="115" y="110" as="targetPoint" />
          </mxGeometry>
        </mxCell>
        <mxCell id="TTVFHWz1o9dqO3t8jT5p-176" value="Email, Password" style="" vertex="1" parent="TTVFHWz1o9dqO3t8jT5p-173">
          <mxGeometry x="60" y="110" width="110" height="50" as="geometry" />
        </mxCell>
        <mxCell id="TTVFHWz1o9dqO3t8jT5p-177" value="Halaman Login" style="" vertex="1" parent="TTVFHWz1o9dqO3t8jT5p-173">
          <mxGeometry x="60" y="312" width="110" height="50" as="geometry" />
        </mxCell>
        <mxCell id="TTVFHWz1o9dqO3t8jT5p-178" value="" style="endArrow=classic;html=1;rounded=0;exitX=-0.024;exitY=0.51;exitDx=0;exitDy=0;exitPerimeter=0;" edge="1" parent="TTVFHWz1o9dqO3t8jT5p-173" source="TTVFHWz1o9dqO3t8jT5p-188">
          <mxGeometry width="50" height="50" relative="1" as="geometry">
            <mxPoint x="655.5" y="252" as="sourcePoint" />
            <mxPoint x="115.5" y="172" as="targetPoint" />
            <Array as="points">
              <mxPoint x="115.5" y="252" />
            </Array>
          </mxGeometry>
        </mxCell>
        <mxCell id="TTVFHWz1o9dqO3t8jT5p-179" value="" style="ellipse;shape=startState;fillColor=#000000;strokeColor=#ff0000;direction=south;" vertex="1" parent="TTVFHWz1o9dqO3t8jT5p-173">
          <mxGeometry x="100" y="422" width="30" height="30" as="geometry" />
        </mxCell>
        <mxCell id="TTVFHWz1o9dqO3t8jT5p-180" value="" style="endArrow=classic;html=1;rounded=0;exitX=0.489;exitY=1.04;exitDx=0;exitDy=0;exitPerimeter=0;entryX=0;entryY=0.5;entryDx=0;entryDy=0;" edge="1" parent="TTVFHWz1o9dqO3t8jT5p-173" source="TTVFHWz1o9dqO3t8jT5p-177" target="TTVFHWz1o9dqO3t8jT5p-179">
          <mxGeometry width="50" height="50" relative="1" as="geometry">
            <mxPoint x="275.5" y="322" as="sourcePoint" />
            <mxPoint x="325.5" y="272" as="targetPoint" />
          </mxGeometry>
        </mxCell>
        <mxCell id="TTVFHWz1o9dqO3t8jT5p-181" value="Sistem" style="swimlane;whiteSpace=wrap" vertex="1" parent="1">
          <mxGeometry x="410" y="940" width="360" height="472" as="geometry" />
        </mxCell>
        <mxCell id="TTVFHWz1o9dqO3t8jT5p-182" value="" style="ellipse;shape=startState;fillColor=#000000;strokeColor=#ff0000;" vertex="1" parent="TTVFHWz1o9dqO3t8jT5p-181">
          <mxGeometry x="120" y="40" width="30" height="30" as="geometry" />
        </mxCell>
        <mxCell id="TTVFHWz1o9dqO3t8jT5p-183" value="" style="edgeStyle=elbowEdgeStyle;elbow=horizontal;verticalAlign=bottom;endArrow=open;endSize=8;strokeColor=#FF0000;endFill=1;rounded=0" edge="1" parent="TTVFHWz1o9dqO3t8jT5p-181" source="TTVFHWz1o9dqO3t8jT5p-182">
          <mxGeometry x="100" y="20" as="geometry">
            <mxPoint x="135.108695652174" y="110" as="targetPoint" />
          </mxGeometry>
        </mxCell>
        <mxCell id="TTVFHWz1o9dqO3t8jT5p-184" value="Request" style="" vertex="1" parent="TTVFHWz1o9dqO3t8jT5p-181">
          <mxGeometry x="80" y="110" width="110" height="50" as="geometry" />
        </mxCell>
        <mxCell id="TTVFHWz1o9dqO3t8jT5p-185" value="Register Valid" style="" vertex="1" parent="TTVFHWz1o9dqO3t8jT5p-181">
          <mxGeometry x="85" y="312" width="110" height="50" as="geometry" />
        </mxCell>
        <mxCell id="TTVFHWz1o9dqO3t8jT5p-186" value="Email, Password Sudah Terdaftar" style="text;html=1;strokeColor=none;fillColor=none;align=center;verticalAlign=middle;whiteSpace=wrap;rounded=0;" vertex="1" parent="TTVFHWz1o9dqO3t8jT5p-181">
          <mxGeometry x="55.5" y="227" width="183.5" height="30" as="geometry" />
        </mxCell>
        <mxCell id="TTVFHWz1o9dqO3t8jT5p-187" value="Database" style="swimlane;whiteSpace=wrap" vertex="1" parent="1">
          <mxGeometry x="690" y="940" width="280" height="472" as="geometry">
            <mxRectangle x="724.5" y="128" width="90" height="30" as="alternateBounds" />
          </mxGeometry>
        </mxCell>
        <mxCell id="TTVFHWz1o9dqO3t8jT5p-188" value="" style="rhombus;fillColor=#ffffc0;strokeColor=#ff0000;" vertex="1" parent="TTVFHWz1o9dqO3t8jT5p-187">
          <mxGeometry x="105" y="232" width="80" height="40" as="geometry" />
        </mxCell>
        <mxCell id="TTVFHWz1o9dqO3t8jT5p-189" value="Validasi" style="" vertex="1" parent="TTVFHWz1o9dqO3t8jT5p-187">
          <mxGeometry x="90" y="112" width="110" height="50" as="geometry" />
        </mxCell>
        <mxCell id="TTVFHWz1o9dqO3t8jT5p-190" value="" style="endArrow=classic;html=1;rounded=0;exitX=1.027;exitY=0.481;exitDx=0;exitDy=0;exitPerimeter=0;" edge="1" parent="TTVFHWz1o9dqO3t8jT5p-187" source="TTVFHWz1o9dqO3t8jT5p-184">
          <mxGeometry width="50" height="50" relative="1" as="geometry">
            <mxPoint x="-94.5" y="134" as="sourcePoint" />
            <mxPoint x="85.5" y="134" as="targetPoint" />
          </mxGeometry>
        </mxCell>
        <mxCell id="TTVFHWz1o9dqO3t8jT5p-191" value="" style="ellipse;shape=startState;fillColor=#000000;strokeColor=#ff0000;" vertex="1" parent="TTVFHWz1o9dqO3t8jT5p-187">
          <mxGeometry x="125" y="42" width="30" height="30" as="geometry" />
        </mxCell>
        <mxCell id="TTVFHWz1o9dqO3t8jT5p-192" value="" style="edgeStyle=elbowEdgeStyle;elbow=horizontal;verticalAlign=bottom;endArrow=open;endSize=8;strokeColor=#FF0000;endFill=1;rounded=0" edge="1" parent="TTVFHWz1o9dqO3t8jT5p-187">
          <mxGeometry x="-339.71000000000004" y="-106" as="geometry">
            <mxPoint x="139.89869565217396" y="112" as="targetPoint" />
            <mxPoint x="139.78999999999996" y="72" as="sourcePoint" />
          </mxGeometry>
        </mxCell>
        <mxCell id="TTVFHWz1o9dqO3t8jT5p-193" value="Ya" style="text;html=1;strokeColor=none;fillColor=none;align=center;verticalAlign=middle;whiteSpace=wrap;rounded=0;" vertex="1" parent="TTVFHWz1o9dqO3t8jT5p-187">
          <mxGeometry x="125" y="302" width="60" height="30" as="geometry" />
        </mxCell>
        <mxCell id="TTVFHWz1o9dqO3t8jT5p-194" value="" style="endArrow=classic;html=1;rounded=0;" edge="1" parent="1">
          <mxGeometry width="50" height="50" relative="1" as="geometry">
            <mxPoint x="305.4999999999998" y="1072" as="sourcePoint" />
            <mxPoint x="485.5" y="1072" as="targetPoint" />
          </mxGeometry>
        </mxCell>
        <mxCell id="TTVFHWz1o9dqO3t8jT5p-195" value="" style="endArrow=classic;html=1;rounded=0;exitX=0.491;exitY=1.073;exitDx=0;exitDy=0;exitPerimeter=0;" edge="1" source="TTVFHWz1o9dqO3t8jT5p-189" parent="1">
          <mxGeometry width="50" height="50" relative="1" as="geometry">
            <mxPoint x="565.5" y="1162" as="sourcePoint" />
            <mxPoint x="834.5" y="1162" as="targetPoint" />
          </mxGeometry>
        </mxCell>
        <mxCell id="TTVFHWz1o9dqO3t8jT5p-196" value="" style="endArrow=classic;html=1;rounded=0;exitX=0.5;exitY=1;exitDx=0;exitDy=0;" edge="1" source="TTVFHWz1o9dqO3t8jT5p-188" parent="1">
          <mxGeometry width="50" height="50" relative="1" as="geometry">
            <mxPoint x="595.5" y="1322" as="sourcePoint" />
            <mxPoint x="605.5" y="1282" as="targetPoint" />
            <Array as="points">
              <mxPoint x="835.5" y="1282" />
            </Array>
          </mxGeometry>
        </mxCell>
        <mxCell id="TTVFHWz1o9dqO3t8jT5p-197" value="" style="endArrow=classic;html=1;rounded=0;exitX=0.005;exitY=0.6;exitDx=0;exitDy=0;exitPerimeter=0;" edge="1" source="TTVFHWz1o9dqO3t8jT5p-185" parent="1">
          <mxGeometry width="50" height="50" relative="1" as="geometry">
            <mxPoint x="435.5" y="1322" as="sourcePoint" />
            <mxPoint x="305.4999999999998" y="1282" as="targetPoint" />
          </mxGeometry>
        </mxCell>
        <mxCell id="TTVFHWz1o9dqO3t8jT5p-229" value="Admin" style="swimlane;whiteSpace=wrap" vertex="1" parent="1">
          <mxGeometry x="2400" y="150" width="280" height="830" as="geometry" />
        </mxCell>
        <mxCell id="TTVFHWz1o9dqO3t8jT5p-230" value="" style="ellipse;shape=startState;fillColor=#000000;strokeColor=#ff0000;" vertex="1" parent="TTVFHWz1o9dqO3t8jT5p-229">
          <mxGeometry x="100" y="40" width="30" height="30" as="geometry" />
        </mxCell>
        <mxCell id="TTVFHWz1o9dqO3t8jT5p-231" value="" style="edgeStyle=elbowEdgeStyle;elbow=horizontal;verticalAlign=bottom;endArrow=open;endSize=8;strokeColor=#FF0000;endFill=1;rounded=0" edge="1" parent="TTVFHWz1o9dqO3t8jT5p-229" source="TTVFHWz1o9dqO3t8jT5p-230" target="TTVFHWz1o9dqO3t8jT5p-232">
          <mxGeometry x="100" y="40" as="geometry">
            <mxPoint x="115" y="110" as="targetPoint" />
          </mxGeometry>
        </mxCell>
        <mxCell id="TTVFHWz1o9dqO3t8jT5p-232" value="Pilih Transaksi" style="" vertex="1" parent="TTVFHWz1o9dqO3t8jT5p-229">
          <mxGeometry x="60" y="110" width="110" height="50" as="geometry" />
        </mxCell>
        <mxCell id="TTVFHWz1o9dqO3t8jT5p-233" value="Menu Transaksi" style="" vertex="1" parent="TTVFHWz1o9dqO3t8jT5p-229">
          <mxGeometry x="60" y="662" width="110" height="50" as="geometry" />
        </mxCell>
        <mxCell id="TTVFHWz1o9dqO3t8jT5p-234" value="Update Status" style="" vertex="1" parent="TTVFHWz1o9dqO3t8jT5p-229">
          <mxGeometry x="70" y="430" width="110" height="50" as="geometry" />
        </mxCell>
        <mxCell id="TTVFHWz1o9dqO3t8jT5p-235" value="Sistem" style="swimlane;whiteSpace=wrap" vertex="1" parent="1">
          <mxGeometry x="2680" y="150" width="280" height="830" as="geometry" />
        </mxCell>
        <mxCell id="TTVFHWz1o9dqO3t8jT5p-236" value="" style="ellipse;shape=startState;fillColor=#000000;strokeColor=#ff0000;" vertex="1" parent="TTVFHWz1o9dqO3t8jT5p-235">
          <mxGeometry x="120" y="40" width="30" height="30" as="geometry" />
        </mxCell>
        <mxCell id="TTVFHWz1o9dqO3t8jT5p-237" value="" style="edgeStyle=elbowEdgeStyle;elbow=horizontal;verticalAlign=bottom;endArrow=open;endSize=8;strokeColor=#FF0000;endFill=1;rounded=0" edge="1" parent="TTVFHWz1o9dqO3t8jT5p-235" source="TTVFHWz1o9dqO3t8jT5p-236">
          <mxGeometry x="100" y="20" as="geometry">
            <mxPoint x="135.108695652174" y="110" as="targetPoint" />
          </mxGeometry>
        </mxCell>
        <mxCell id="TTVFHWz1o9dqO3t8jT5p-238" value="Request" style="" vertex="1" parent="TTVFHWz1o9dqO3t8jT5p-235">
          <mxGeometry x="80" y="110" width="110" height="50" as="geometry" />
        </mxCell>
        <mxCell id="TTVFHWz1o9dqO3t8jT5p-239" value="Transaksi Tampil" style="" vertex="1" parent="TTVFHWz1o9dqO3t8jT5p-235">
          <mxGeometry x="80" y="212" width="110" height="50" as="geometry" />
        </mxCell>
        <mxCell id="TTVFHWz1o9dqO3t8jT5p-240" value="Simpan Data" style="rounded=1;whiteSpace=wrap;html=1;" vertex="1" parent="TTVFHWz1o9dqO3t8jT5p-235">
          <mxGeometry x="75" y="532" width="120" height="60" as="geometry" />
        </mxCell>
        <mxCell id="TTVFHWz1o9dqO3t8jT5p-241" value="" style="rhombus;fillColor=#ffffc0;strokeColor=#ff0000;" vertex="1" parent="TTVFHWz1o9dqO3t8jT5p-235">
          <mxGeometry x="95" y="672" width="80" height="40" as="geometry" />
        </mxCell>
        <mxCell id="TTVFHWz1o9dqO3t8jT5p-242" value="Tidak" style="text;html=1;strokeColor=none;fillColor=none;align=center;verticalAlign=middle;whiteSpace=wrap;rounded=0;" vertex="1" parent="TTVFHWz1o9dqO3t8jT5p-235">
          <mxGeometry x="15" y="692" width="60" height="30" as="geometry" />
        </mxCell>
        <mxCell id="TTVFHWz1o9dqO3t8jT5p-243" value="Ya" style="text;html=1;strokeColor=none;fillColor=none;align=center;verticalAlign=middle;whiteSpace=wrap;rounded=0;" vertex="1" parent="TTVFHWz1o9dqO3t8jT5p-235">
          <mxGeometry x="210" y="692" width="60" height="30" as="geometry" />
        </mxCell>
        <mxCell id="TTVFHWz1o9dqO3t8jT5p-269" value="" style="endArrow=classic;html=1;rounded=0;exitX=0.541;exitY=1.016;exitDx=0;exitDy=0;exitPerimeter=0;entryX=0.533;entryY=-0.013;entryDx=0;entryDy=0;entryPerimeter=0;" edge="1" parent="TTVFHWz1o9dqO3t8jT5p-235" source="TTVFHWz1o9dqO3t8jT5p-239">
          <mxGeometry width="50" height="50" relative="1" as="geometry">
            <mxPoint x="60" y="380" as="sourcePoint" />
            <mxPoint x="139.7850000000003" y="319.35" as="targetPoint" />
          </mxGeometry>
        </mxCell>
        <mxCell id="TTVFHWz1o9dqO3t8jT5p-259" value="" style="rhombus;fillColor=#ffffc0;strokeColor=#ff0000;" vertex="1" parent="TTVFHWz1o9dqO3t8jT5p-235">
          <mxGeometry x="100" y="430" width="80" height="40" as="geometry" />
        </mxCell>
        <mxCell id="TTVFHWz1o9dqO3t8jT5p-273" value="" style="endArrow=classic;html=1;rounded=0;exitX=0.53;exitY=1.004;exitDx=0;exitDy=0;exitPerimeter=0;entryX=0.5;entryY=0;entryDx=0;entryDy=0;" edge="1" parent="TTVFHWz1o9dqO3t8jT5p-235" target="TTVFHWz1o9dqO3t8jT5p-259">
          <mxGeometry width="50" height="50" relative="1" as="geometry">
            <mxPoint x="139.35000000000036" y="370.20000000000005" as="sourcePoint" />
            <mxPoint x="160" y="370" as="targetPoint" />
          </mxGeometry>
        </mxCell>
        <mxCell id="TTVFHWz1o9dqO3t8jT5p-274" value="Ya" style="text;html=1;strokeColor=none;fillColor=none;align=center;verticalAlign=middle;whiteSpace=wrap;rounded=0;" vertex="1" parent="TTVFHWz1o9dqO3t8jT5p-235">
          <mxGeometry x="-10" y="450" width="60" height="30" as="geometry" />
        </mxCell>
        <mxCell id="TTVFHWz1o9dqO3t8jT5p-275" value="Belum Lunas ?" style="" vertex="1" parent="TTVFHWz1o9dqO3t8jT5p-235">
          <mxGeometry x="85" y="320" width="110" height="50" as="geometry" />
        </mxCell>
        <mxCell id="TTVFHWz1o9dqO3t8jT5p-244" value="Database" style="swimlane;whiteSpace=wrap" vertex="1" parent="1">
          <mxGeometry x="2960" y="150" width="280" height="830" as="geometry">
            <mxRectangle x="724.5" y="128" width="90" height="30" as="alternateBounds" />
          </mxGeometry>
        </mxCell>
        <mxCell id="TTVFHWz1o9dqO3t8jT5p-245" value="Eksekusi" style="" vertex="1" parent="TTVFHWz1o9dqO3t8jT5p-244">
          <mxGeometry x="90" y="112" width="110" height="50" as="geometry" />
        </mxCell>
        <mxCell id="TTVFHWz1o9dqO3t8jT5p-246" value="" style="endArrow=classic;html=1;rounded=0;exitX=1.027;exitY=0.481;exitDx=0;exitDy=0;exitPerimeter=0;" edge="1" parent="TTVFHWz1o9dqO3t8jT5p-244" source="TTVFHWz1o9dqO3t8jT5p-238">
          <mxGeometry width="50" height="50" relative="1" as="geometry">
            <mxPoint x="-94.5" y="134" as="sourcePoint" />
            <mxPoint x="85.5" y="134" as="targetPoint" />
          </mxGeometry>
        </mxCell>
        <mxCell id="TTVFHWz1o9dqO3t8jT5p-247" value="" style="ellipse;shape=startState;fillColor=#000000;strokeColor=#ff0000;" vertex="1" parent="TTVFHWz1o9dqO3t8jT5p-244">
          <mxGeometry x="125" y="42" width="30" height="30" as="geometry" />
        </mxCell>
        <mxCell id="TTVFHWz1o9dqO3t8jT5p-248" value="" style="edgeStyle=elbowEdgeStyle;elbow=horizontal;verticalAlign=bottom;endArrow=open;endSize=8;strokeColor=#FF0000;endFill=1;rounded=0" edge="1" parent="TTVFHWz1o9dqO3t8jT5p-244">
          <mxGeometry x="-339.71000000000004" y="-106" as="geometry">
            <mxPoint x="139.89869565217396" y="112" as="targetPoint" />
            <mxPoint x="139.78999999999996" y="72" as="sourcePoint" />
          </mxGeometry>
        </mxCell>
        <mxCell id="TTVFHWz1o9dqO3t8jT5p-249" value="Data Disimpan" style="rounded=1;whiteSpace=wrap;html=1;" vertex="1" parent="TTVFHWz1o9dqO3t8jT5p-244">
          <mxGeometry x="85" y="662" width="120" height="60" as="geometry" />
        </mxCell>
        <mxCell id="TTVFHWz1o9dqO3t8jT5p-250" value="" style="ellipse;shape=startState;fillColor=#000000;strokeColor=#ff0000;direction=south;" vertex="1" parent="TTVFHWz1o9dqO3t8jT5p-244">
          <mxGeometry x="130" y="772" width="30" height="30" as="geometry" />
        </mxCell>
        <mxCell id="TTVFHWz1o9dqO3t8jT5p-251" value="" style="endArrow=classic;html=1;rounded=0;exitX=0.501;exitY=1.024;exitDx=0;exitDy=0;exitPerimeter=0;" edge="1" parent="TTVFHWz1o9dqO3t8jT5p-244" source="TTVFHWz1o9dqO3t8jT5p-249" target="TTVFHWz1o9dqO3t8jT5p-250">
          <mxGeometry width="50" height="50" relative="1" as="geometry">
            <mxPoint y="612" as="sourcePoint" />
            <mxPoint x="150" y="642" as="targetPoint" />
          </mxGeometry>
        </mxCell>
        <mxCell id="TTVFHWz1o9dqO3t8jT5p-252" value="" style="endArrow=classic;html=1;rounded=0;" edge="1" parent="1">
          <mxGeometry width="50" height="50" relative="1" as="geometry">
            <mxPoint x="2575.5" y="282" as="sourcePoint" />
            <mxPoint x="2755.5" y="282" as="targetPoint" />
          </mxGeometry>
        </mxCell>
        <mxCell id="TTVFHWz1o9dqO3t8jT5p-253" value="" style="endArrow=classic;html=1;rounded=0;exitX=0.491;exitY=1.073;exitDx=0;exitDy=0;exitPerimeter=0;entryX=1.023;entryY=0.504;entryDx=0;entryDy=0;entryPerimeter=0;" edge="1" source="TTVFHWz1o9dqO3t8jT5p-245" target="TTVFHWz1o9dqO3t8jT5p-239" parent="1">
          <mxGeometry width="50" height="50" relative="1" as="geometry">
            <mxPoint x="2835.5" y="372" as="sourcePoint" />
            <mxPoint x="3104.5" y="372" as="targetPoint" />
            <Array as="points">
              <mxPoint x="3104" y="387" />
            </Array>
          </mxGeometry>
        </mxCell>
        <mxCell id="TTVFHWz1o9dqO3t8jT5p-254" value="" style="endArrow=classic;html=1;rounded=0;entryX=-0.002;entryY=0.613;entryDx=0;entryDy=0;entryPerimeter=0;" edge="1" target="TTVFHWz1o9dqO3t8jT5p-240" parent="1">
          <mxGeometry width="50" height="50" relative="1" as="geometry">
            <mxPoint x="2520" y="630" as="sourcePoint" />
            <mxPoint x="2575.5" y="712" as="targetPoint" />
            <Array as="points">
              <mxPoint x="2520" y="720" />
            </Array>
          </mxGeometry>
        </mxCell>
        <mxCell id="TTVFHWz1o9dqO3t8jT5p-256" value="" style="endArrow=classic;html=1;rounded=0;exitX=0.473;exitY=1.046;exitDx=0;exitDy=0;exitPerimeter=0;" edge="1" source="TTVFHWz1o9dqO3t8jT5p-240" parent="1">
          <mxGeometry width="50" height="50" relative="1" as="geometry">
            <mxPoint x="2870" y="832" as="sourcePoint" />
            <mxPoint x="2812" y="812" as="targetPoint" />
          </mxGeometry>
        </mxCell>
        <mxCell id="TTVFHWz1o9dqO3t8jT5p-257" value="" style="endArrow=classic;html=1;rounded=0;" edge="1" parent="1">
          <mxGeometry width="50" height="50" relative="1" as="geometry">
            <mxPoint x="2860" y="842" as="sourcePoint" />
            <mxPoint x="3040" y="842" as="targetPoint" />
          </mxGeometry>
        </mxCell>
        <mxCell id="TTVFHWz1o9dqO3t8jT5p-258" value="" style="endArrow=classic;html=1;rounded=0;exitX=0;exitY=0.5;exitDx=0;exitDy=0;" edge="1" source="TTVFHWz1o9dqO3t8jT5p-241" parent="1">
          <mxGeometry width="50" height="50" relative="1" as="geometry">
            <mxPoint x="2930" y="772" as="sourcePoint" />
            <mxPoint x="2580" y="842" as="targetPoint" />
          </mxGeometry>
        </mxCell>
        <mxCell id="TTVFHWz1o9dqO3t8jT5p-270" value="" style="endArrow=classic;html=1;rounded=0;" edge="1" parent="1">
          <mxGeometry width="50" height="50" relative="1" as="geometry">
            <mxPoint x="2770" y="600" as="sourcePoint" />
            <mxPoint x="2590" y="600" as="targetPoint" />
          </mxGeometry>
        </mxCell>
      </root>
    </mxGraphModel>
  </diagram>
</mxfile>
